<svg width="122" height="39" viewBox="0 0 122 39" fill="none" xmlns="http://www.w3.org/2000/svg">
<path d="M2.92 15V0.799999H8.74C9.32667 0.799999 9.86667 0.926666 10.36 1.18C10.8533 1.42 11.28 1.75333 11.64 2.18C12 2.59333 12.28 3.06 12.48 3.58C12.6933 4.08667 12.8 4.60667 12.8 5.14C12.8 5.88667 12.6333 6.59333 12.3 7.26C11.9667 7.92667 11.5067 8.47333 10.92 8.9C10.3333 9.31333 9.64667 9.52 8.86 9.52H3.62V15H2.92ZM3.62 8.88H8.84C9.52 8.88 10.1 8.7 10.58 8.34C11.0733 7.96667 11.4467 7.5 11.7 6.94C11.9667 6.36667 12.1 5.76667 12.1 5.14C12.1 4.48667 11.9467 3.88 11.64 3.32C11.3333 2.76 10.92 2.30667 10.4 1.96C9.89333 1.61333 9.33333 1.44 8.72 1.44H3.62V8.88ZM19.6823 5.24C18.7357 5.28 17.9023 5.58667 17.1823 6.16C16.4757 6.72 15.9823 7.48667 15.7023 8.46V15H15.0223V4.6H15.6823V7.24C16.0423 6.50667 16.5223 5.90667 17.1223 5.44C17.7357 4.97333 18.3757 4.7 19.0423 4.62C19.1757 4.60667 19.2957 4.6 19.4023 4.6C19.5223 4.6 19.6157 4.6 19.6823 4.6V5.24ZM25.4947 15.2C24.8014 15.2 24.1414 15.06 23.5147 14.78C22.9014 14.4867 22.3614 14.0933 21.8947 13.6C21.4414 13.0933 21.0814 12.5133 20.8147 11.86C20.5614 11.1933 20.4347 10.4867 20.4347 9.74C20.4347 8.76667 20.6547 7.88 21.0947 7.08C21.5347 6.28 22.128 5.64 22.8747 5.16C23.6347 4.68 24.4814 4.44 25.4147 4.44C26.3747 4.44 27.228 4.68667 27.9747 5.18C28.7347 5.66 29.3414 6.30667 29.7947 7.12C30.248 7.92 30.4747 8.81333 30.4747 9.8C30.4747 9.85333 30.4747 9.90667 30.4747 9.96C30.4747 10.0133 30.468 10.0667 30.4547 10.12H21.1347C21.2014 10.96 21.4347 11.72 21.8347 12.4C22.248 13.08 22.7747 13.62 23.4147 14.02C24.068 14.42 24.7747 14.62 25.5347 14.62C26.2947 14.62 27.008 14.4267 27.6747 14.04C28.3414 13.64 28.8147 13.1333 29.0947 12.52L29.7147 12.68C29.5147 13.16 29.2014 13.5933 28.7747 13.98C28.348 14.3667 27.848 14.6667 27.2747 14.88C26.7147 15.0933 26.1214 15.2 25.4947 15.2ZM21.1147 9.54H29.7947C29.7414 8.66 29.5147 7.88667 29.1147 7.22C28.728 6.54 28.2147 6.00667 27.5747 5.62C26.9347 5.23333 26.2214 5.04 25.4347 5.04C24.6614 5.04 23.9547 5.23333 23.3147 5.62C22.688 6.00667 22.1747 6.54 21.7747 7.22C21.388 7.9 21.168 8.67333 21.1147 9.54ZM35.8967 15.2C35.0967 15.2 34.3501 15.0667 33.6567 14.8C32.9767 14.52 32.3767 14.0933 31.8567 13.52L32.2167 13.04C32.7767 13.5733 33.3501 13.9667 33.9367 14.22C34.5234 14.4733 35.1701 14.6 35.8767 14.6C36.8501 14.6 37.6367 14.3933 38.2367 13.98C38.8367 13.5667 39.1367 12.9933 39.1367 12.26C39.1367 11.78 38.9967 11.4067 38.7167 11.14C38.4501 10.8733 38.0567 10.66 37.5367 10.5C37.0301 10.3267 36.4101 10.1533 35.6767 9.98C34.9567 9.79333 34.3567 9.61333 33.8767 9.44C33.4101 9.25333 33.0567 9.00667 32.8167 8.7C32.5767 8.39333 32.4567 7.96667 32.4567 7.42C32.4567 6.72667 32.6234 6.16667 32.9567 5.74C33.3034 5.3 33.7567 4.97333 34.3167 4.76C34.8901 4.54667 35.5167 4.44 36.1967 4.44C37.0234 4.44 37.7367 4.58 38.3367 4.86C38.9367 5.14 39.3701 5.49333 39.6367 5.92L39.1967 6.3C38.9034 5.88667 38.4767 5.57333 37.9167 5.36C37.3701 5.14667 36.7701 5.04 36.1167 5.04C35.5834 5.04 35.0901 5.12 34.6367 5.28C34.1834 5.44 33.8167 5.68667 33.5367 6.02C33.2567 6.34 33.1167 6.77333 33.1167 7.32C33.1167 7.76 33.2167 8.1 33.4167 8.34C33.6167 8.58 33.9167 8.77333 34.3167 8.92C34.7167 9.05333 35.2234 9.2 35.8367 9.36C36.6501 9.56 37.3501 9.76667 37.9367 9.98C38.5367 10.18 38.9967 10.4467 39.3167 10.78C39.6367 11.1133 39.7967 11.58 39.7967 12.18C39.7967 13.1133 39.4367 13.8533 38.7167 14.4C38.0101 14.9333 37.0701 15.2 35.8967 15.2ZM46.5689 14.52C46.5422 14.5333 46.4356 14.5933 46.2489 14.7C46.0622 14.7933 45.8222 14.8867 45.5289 14.98C45.2489 15.06 44.9222 15.1 44.5489 15.1C44.2022 15.1 43.8822 15.0333 43.5889 14.9C43.2956 14.7667 43.0622 14.5733 42.8889 14.32C42.7156 14.0533 42.6289 13.74 42.6289 13.38V5.2H41.1489V4.6H42.6289V1.02H43.3089V4.6H45.7689V5.2H43.3089V13.28C43.3356 13.6667 43.4822 13.96 43.7489 14.16C44.0156 14.36 44.3222 14.46 44.6689 14.46C45.1089 14.46 45.4822 14.3867 45.7889 14.24C46.1089 14.08 46.2822 13.9867 46.3089 13.96L46.5689 14.52ZM48.3817 15V4.6H49.0617V15H48.3817ZM48.3817 2.08V0.4H49.0617V2.08H48.3817ZM56.547 15.18C55.8404 15.18 55.1804 15.0333 54.567 14.74C53.9537 14.4333 53.427 14.0267 52.987 13.52C52.547 13 52.2004 12.4267 51.947 11.8C51.707 11.16 51.587 10.5067 51.587 9.84C51.587 9.13333 51.7004 8.46 51.927 7.82C52.167 7.16667 52.5004 6.58667 52.927 6.08C53.367 5.57333 53.8804 5.17333 54.467 4.88C55.0537 4.58667 55.707 4.44 56.427 4.44C57.347 4.44 58.147 4.68667 58.827 5.18C59.5204 5.67333 60.107 6.26667 60.587 6.96V4.6H61.227V15.32C61.227 16.24 61.007 17.0067 60.567 17.62C60.127 18.2467 59.5404 18.7067 58.807 19C58.087 19.3067 57.3137 19.46 56.487 19.46C55.2737 19.46 54.3137 19.2333 53.607 18.78C52.9137 18.3267 52.3604 17.74 51.947 17.02L52.467 16.74C52.8804 17.4733 53.447 18.0067 54.167 18.34C54.9004 18.6867 55.6737 18.86 56.487 18.86C57.2337 18.86 57.9137 18.7267 58.527 18.46C59.1404 18.1933 59.627 17.7933 59.987 17.26C60.3604 16.74 60.547 16.0933 60.547 15.32V12.88C60.1204 13.56 59.5404 14.1133 58.807 14.54C58.087 14.9667 57.3337 15.18 56.547 15.18ZM56.667 14.56C57.1337 14.56 57.587 14.4733 58.027 14.3C58.467 14.1267 58.8737 13.8933 59.247 13.6C59.6204 13.3067 59.9204 12.9867 60.147 12.64C60.3737 12.28 60.507 11.92 60.547 11.56V7.98C60.3337 7.40667 60.0137 6.90667 59.587 6.48C59.1604 6.04 58.6804 5.7 58.147 5.46C57.6137 5.20667 57.0604 5.08 56.487 5.08C55.8337 5.08 55.2404 5.22 54.707 5.5C54.187 5.78 53.747 6.15333 53.387 6.62C53.027 7.07333 52.7537 7.58667 52.567 8.16C52.3804 8.72 52.287 9.28 52.287 9.84C52.287 10.4667 52.3937 11.0667 52.607 11.64C52.8337 12.2 53.147 12.7067 53.547 13.16C53.9604 13.6 54.427 13.9467 54.947 14.2C55.4804 14.44 56.0537 14.56 56.667 14.56ZM68.7955 15.2C68.1021 15.2 67.4421 15.06 66.8155 14.78C66.2021 14.4867 65.6621 14.0933 65.1955 13.6C64.7421 13.0933 64.3821 12.5133 64.1155 11.86C63.8621 11.1933 63.7355 10.4867 63.7355 9.74C63.7355 8.76667 63.9555 7.88 64.3955 7.08C64.8355 6.28 65.4288 5.64 66.1755 5.16C66.9355 4.68 67.7821 4.44 68.7155 4.44C69.6755 4.44 70.5288 4.68667 71.2755 5.18C72.0355 5.66 72.6421 6.30667 73.0955 7.12C73.5488 7.92 73.7755 8.81333 73.7755 9.8C73.7755 9.85333 73.7755 9.90667 73.7755 9.96C73.7755 10.0133 73.7688 10.0667 73.7555 10.12H64.4355C64.5021 10.96 64.7355 11.72 65.1355 12.4C65.5488 13.08 66.0755 13.62 66.7155 14.02C67.3688 14.42 68.0755 14.62 68.8355 14.62C69.5955 14.62 70.3088 14.4267 70.9755 14.04C71.6421 13.64 72.1155 13.1333 72.3955 12.52L73.0155 12.68C72.8155 13.16 72.5021 13.5933 72.0755 13.98C71.6488 14.3667 71.1488 14.6667 70.5755 14.88C70.0155 15.0933 69.4221 15.2 68.7955 15.2ZM64.4155 9.54H73.0955C73.0421 8.66 72.8155 7.88667 72.4155 7.22C72.0288 6.54 71.5155 6.00667 70.8755 5.62C70.2355 5.23333 69.5221 5.04 68.7355 5.04C67.9621 5.04 67.2555 5.23333 66.6155 5.62C65.9888 6.00667 65.4755 6.54 65.0755 7.22C64.6888 7.9 64.4688 8.67333 64.4155 9.54ZM0.676 24.626H6.076V25.742L4.51 25.976L6.778 34.094L7.192 36.092L7.606 34.094L9.532 27.506L9.028 25.976L7.84 25.742V24.626H13.474V25.742L11.746 25.976L13.996 34.094L14.482 36.254L14.86 34.094L16.912 25.976L15.292 25.742V24.626H19.63V25.742L18.478 25.976L15.058 38.09H12.682L10.198 29.684L7.822 38.09H5.482L1.774 25.994L0.676 25.742V24.626ZM25.6888 38.198C23.7328 38.198 22.2688 37.586 21.2968 36.362C20.3248 35.138 19.8388 33.47 19.8388 31.358C19.8388 29.978 20.0908 28.766 20.5948 27.722C21.1108 26.678 21.8308 25.874 22.7548 25.31C23.6788 24.746 24.7408 24.464 25.9408 24.464C27.9208 24.464 29.4028 25.052 30.3868 26.228C31.3828 27.392 31.8808 29.024 31.8808 31.124C31.8808 32.516 31.6168 33.752 31.0888 34.832C30.5728 35.9 29.8468 36.728 28.9108 37.316C27.9748 37.904 26.9008 38.198 25.6888 38.198ZM25.8688 25.562C24.8848 25.562 24.1168 26.048 23.5648 27.02C23.0128 27.992 22.7368 29.432 22.7368 31.34C22.7368 33.224 23.0008 34.658 23.5288 35.642C24.0688 36.614 24.8368 37.1 25.8328 37.1C26.8048 37.1 27.5668 36.59 28.1188 35.57C28.6708 34.538 28.9468 33.056 28.9468 31.124C28.9468 29.252 28.6828 27.86 28.1548 26.948C27.6268 26.024 26.8648 25.562 25.8688 25.562ZM33.0965 36.92L34.5185 36.74V25.976L33.1685 25.724V24.626H35.7785C36.0065 24.626 36.2585 24.62 36.5345 24.608C36.8105 24.596 37.0205 24.584 37.1645 24.572C37.7885 24.524 38.3045 24.5 38.7125 24.5C39.9485 24.5 40.9385 24.626 41.6825 24.878C42.4265 25.13 42.9665 25.514 43.3025 26.03C43.6385 26.546 43.8065 27.224 43.8065 28.064C43.8065 28.892 43.5845 29.66 43.1405 30.368C42.6965 31.076 42.0545 31.562 41.2145 31.826C41.6945 32.03 42.1205 32.402 42.4925 32.942C42.8645 33.482 43.2605 34.184 43.6805 35.048C43.9805 35.636 44.2085 36.062 44.3645 36.326C44.5325 36.578 44.6945 36.722 44.8505 36.758L45.4445 36.938V38H42.3845C42.1925 38 41.9885 37.808 41.7725 37.424C41.5685 37.028 41.2985 36.41 40.9625 35.57C40.5665 34.586 40.2245 33.818 39.9365 33.266C39.6485 32.714 39.3425 32.372 39.0185 32.24H37.1645V36.74L38.8205 36.92V38H33.0965V36.92ZM38.8205 31.142C39.5045 31.142 40.0385 30.896 40.4225 30.404C40.8065 29.912 40.9985 29.174 40.9985 28.19C40.9985 27.314 40.8065 26.666 40.4225 26.246C40.0505 25.826 39.4025 25.616 38.4785 25.616C38.1425 25.616 37.8545 25.634 37.6145 25.67C37.3865 25.694 37.2365 25.706 37.1645 25.706V31.106C37.3085 31.13 37.6565 31.142 38.2085 31.142H38.8205ZM47.5092 25.976L46.1232 25.742V24.626H51.8832V25.742L50.1552 25.976V36.722L54.0072 36.56L55.1412 33.194L56.5992 33.392L56.0412 38H46.0872V36.92L47.5092 36.74V25.976ZM58.9697 25.976L57.6197 25.742V24.626H60.2477C60.6437 24.626 61.1777 24.602 61.8497 24.554C62.0057 24.542 62.2397 24.53 62.5517 24.518C62.8757 24.506 63.1637 24.5 63.4157 24.5C65.6237 24.5 67.2737 25.052 68.3657 26.156C69.4697 27.26 70.0217 28.826 70.0217 30.854C70.0217 32.27 69.7457 33.53 69.1937 34.634C68.6537 35.738 67.8797 36.602 66.8717 37.226C65.8637 37.838 64.6877 38.144 63.3437 38.144C62.9957 38.144 62.4497 38.12 61.7057 38.072C61.0097 38.024 60.5357 38 60.2837 38H57.5477V36.92L58.9697 36.74V25.976ZM61.5797 36.794C61.9877 36.902 62.5577 36.956 63.2897 36.956C64.4897 36.932 65.4317 36.452 66.1157 35.516C66.7997 34.568 67.1417 33.152 67.1417 31.268C67.1417 29.48 66.8057 28.1 66.1337 27.128C65.4617 26.144 64.4177 25.652 63.0017 25.652C62.7017 25.652 62.4137 25.67 62.1377 25.706C61.8737 25.742 61.6877 25.766 61.5797 25.778V36.794ZM70.2151 24.626H75.6151V25.742L74.0491 25.976L76.3171 34.094L76.7311 36.092L77.1451 34.094L79.0711 27.506L78.5671 25.976L77.3791 25.742V24.626H83.0131V25.742L81.2851 25.976L83.5351 34.094L84.0211 36.254L84.3991 34.094L86.4511 25.976L84.8311 25.742V24.626H89.1691V25.742L88.0171 25.976L84.5971 38.09H82.2211L79.7371 29.684L77.3611 38.09H75.0211L71.3131 25.994L70.2151 25.742V24.626ZM91.1959 25.976L89.6659 25.742V24.626H95.4259V25.742L93.8419 25.976V36.74L95.4259 36.938V38H89.6659V36.92L91.1959 36.74V25.976ZM98.3623 25.976L97.0123 25.742V24.626H99.6403C100.036 24.626 100.57 24.602 101.242 24.554C101.398 24.542 101.632 24.53 101.944 24.518C102.268 24.506 102.556 24.5 102.808 24.5C105.016 24.5 106.666 25.052 107.758 26.156C108.862 27.26 109.414 28.826 109.414 30.854C109.414 32.27 109.138 33.53 108.586 34.634C108.046 35.738 107.272 36.602 106.264 37.226C105.256 37.838 104.08 38.144 102.736 38.144C102.388 38.144 101.842 38.12 101.098 38.072C100.402 38.024 99.9283 38 99.6763 38H96.9403V36.92L98.3623 36.74V25.976ZM100.972 36.794C101.38 36.902 101.95 36.956 102.682 36.956C103.882 36.932 104.824 36.452 105.508 35.516C106.192 34.568 106.534 33.152 106.534 31.268C106.534 29.48 106.198 28.1 105.526 27.128C104.854 26.144 103.81 25.652 102.394 25.652C102.094 25.652 101.806 25.67 101.53 25.706C101.266 25.742 101.08 25.766 100.972 25.778V36.794ZM112.056 25.976L110.616 25.742V24.626H120.21L120.444 27.65H119.184L118.59 25.868L114.702 25.706V30.548L117.204 30.494L117.492 29.018H118.644V33.374H117.492L117.204 31.826L114.702 31.772V36.848L119.058 36.632L120.102 34.328L121.452 34.706L120.984 38H110.634V36.92L112.056 36.74V25.976Z" fill="#EBEBEB"/>
</svg>
